<svg width="35" height="35" viewBox="0 0 35 35" fill="none" xmlns="http://www.w3.org/2000/svg">
<mask id="path-1-inside-1_28_535" fill="white">
<path fill-rule="evenodd" clip-rule="evenodd" d="M2.29326 8.68522C-2.42478 16.9803 0.36472 27.6145 8.57192 32.4244C16.7791 37.2343 27.2466 34.3694 31.9646 26.0743C36.6827 17.7792 33.8932 7.14497 25.686 2.3351C17.4788 -2.47477 7.0113 0.390131 2.29326 8.68522ZM9.68548 30.4666C2.56517 26.2937 0.125572 17.0517 4.23648 9.82406C8.34739 2.5964 17.4521 0.120026 24.5724 4.29292C31.6927 8.46581 34.1323 17.7078 30.0214 24.9354C25.9105 32.1631 16.8058 34.6395 9.68548 30.4666ZM13.7876 20.9928C12.7444 22.4539 12.021 24.0048 13.3791 26.7123L13.3781 26.7142C9.05428 24.3796 7.91628 22.1709 8.5673 19.153C8.78419 18.148 9.26412 17.2273 9.73951 16.3154C10.3181 15.2055 10.8899 14.1085 10.9727 12.888C11.6451 14.0592 11.7246 14.9044 11.8 16.1283C13.9374 13.62 16.1533 10.2625 15.6745 7.19291C15.6745 7.19291 19.7262 8.41293 21.3645 14.3657C22.3334 13.5409 22.2417 11.8407 21.7628 10.8364C23.2004 11.8407 31.4578 20.7556 20.4659 26.7132C22.5331 22.858 20.9998 17.6568 17.4115 15.2548C17.6509 16.2874 17.3514 18.9851 15.7641 20.6776C16.1238 18.9266 15.2252 17.8081 15.2252 17.8081C15.2252 17.8081 14.9307 19.3921 13.7876 20.9928Z"/>
</mask>
<path fill-rule="evenodd" clip-rule="evenodd" d="M2.29326 8.68522C-2.42478 16.9803 0.36472 27.6145 8.57192 32.4244C16.7791 37.2343 27.2466 34.3694 31.9646 26.0743C36.6827 17.7792 33.8932 7.14497 25.686 2.3351C17.4788 -2.47477 7.0113 0.390131 2.29326 8.68522ZM9.68548 30.4666C2.56517 26.2937 0.125572 17.0517 4.23648 9.82406C8.34739 2.5964 17.4521 0.120026 24.5724 4.29292C31.6927 8.46581 34.1323 17.7078 30.0214 24.9354C25.9105 32.1631 16.8058 34.6395 9.68548 30.4666ZM13.7876 20.9928C12.7444 22.4539 12.021 24.0048 13.3791 26.7123L13.3781 26.7142C9.05428 24.3796 7.91628 22.1709 8.5673 19.153C8.78419 18.148 9.26412 17.2273 9.73951 16.3154C10.3181 15.2055 10.8899 14.1085 10.9727 12.888C11.6451 14.0592 11.7246 14.9044 11.8 16.1283C13.9374 13.62 16.1533 10.2625 15.6745 7.19291C15.6745 7.19291 19.7262 8.41293 21.3645 14.3657C22.3334 13.5409 22.2417 11.8407 21.7628 10.8364C23.2004 11.8407 31.4578 20.7556 20.4659 26.7132C22.5331 22.858 20.9998 17.6568 17.4115 15.2548C17.6509 16.2874 17.3514 18.9851 15.7641 20.6776C16.1238 18.9266 15.2252 17.8081 15.2252 17.8081C15.2252 17.8081 14.9307 19.3921 13.7876 20.9928Z" fill="black"/>
<path d="M8.57192 32.4244L8.19231 33.0721V33.0721L8.57192 32.4244ZM2.29326 8.68522L1.64065 8.31404L2.29326 8.68522ZM31.9646 26.0743L31.312 25.7031L31.9646 26.0743ZM4.23648 9.82406L4.88909 10.1952L4.23648 9.82406ZM9.68548 30.4666L9.30587 31.1143L9.68548 30.4666ZM24.5724 4.29292L24.952 3.64518L24.5724 4.29292ZM30.0214 24.9354L30.674 25.3066V25.3066L30.0214 24.9354ZM13.3791 26.7123L14.0447 27.0597L14.2225 26.7191L14.0502 26.3756L13.3791 26.7123ZM13.7876 20.9928L13.1767 20.5565L13.1766 20.5565L13.7876 20.9928ZM13.3781 26.7142L13.0214 27.3748L13.6913 27.7366L14.0437 27.0616L13.3781 26.7142ZM8.5673 19.153L7.83341 18.9946L7.8334 18.9947L8.5673 19.153ZM9.73951 16.3154L9.07375 15.9683V15.9683L9.73951 16.3154ZM10.9727 12.888L11.6238 12.5142L10.3911 10.3671L10.2236 12.8372L10.9727 12.888ZM11.8 16.1283L11.0506 16.1745L11.165 18.0311L12.3714 16.6153L11.8 16.1283ZM15.6745 7.19291L15.8909 6.47401L14.7488 6.13011L14.9327 7.30863L15.6745 7.19291ZM21.3645 14.3657L20.6406 14.5649L20.9534 15.7015L21.8511 14.9374L21.3645 14.3657ZM21.7628 10.8364L22.1928 10.2209L19.8609 8.59174L21.0851 11.1595L21.7628 10.8364ZM20.4659 26.7132L19.8042 26.3585L18.6195 28.5679L20.8237 27.3733L20.4659 26.7132ZM17.4115 15.2548L17.8292 14.6309L16.2513 13.5747L16.6801 15.4244L17.4115 15.2548ZM15.7641 20.6776L15.0287 20.5265L14.4941 23.1291L16.3117 21.1912L15.7641 20.6776ZM15.2252 17.8081L15.8105 17.3379L14.786 16.0626L14.487 17.6709L15.2252 17.8081ZM8.95153 31.7767C1.10344 27.1772 -1.57173 16.9991 2.94587 9.05641L1.64065 8.31404C-3.27784 16.9616 -0.374004 28.0518 8.19231 33.0721L8.95153 31.7767ZM31.312 25.7031C26.7981 33.6393 16.7929 36.3721 8.95153 31.7767L8.19231 33.0721C16.7654 38.0964 27.6951 35.0994 32.6172 26.4455L31.312 25.7031ZM25.3064 2.98284C33.1544 7.58225 35.8296 17.7604 31.312 25.7031L32.6172 26.4455C37.5357 17.7979 34.6319 6.70769 26.0656 1.68736L25.3064 2.98284ZM2.94587 9.05641C7.45981 1.12016 17.465 -1.61262 25.3064 2.98284L26.0656 1.68736C17.4925 -3.33692 6.5628 -0.339898 1.64065 8.31404L2.94587 9.05641ZM3.58388 9.45288C-0.727586 17.0331 1.82662 26.7311 9.30587 31.1143L10.0651 29.8188C3.30372 25.8563 0.978729 17.0703 4.88909 10.1952L3.58388 9.45288ZM24.952 3.64518C17.466 -0.742017 7.899 1.86619 3.58388 9.45288L4.88909 10.1952C8.79579 3.32662 17.4382 0.982069 24.1928 4.94066L24.952 3.64518ZM30.674 25.3066C34.9855 17.7264 32.4313 8.02842 24.952 3.64518L24.1928 4.94066C30.9542 8.90319 33.2792 17.6892 29.3688 24.5643L30.674 25.3066ZM9.30587 31.1143C16.7918 35.5015 26.3589 32.8933 30.674 25.3066L29.3688 24.5643C25.4621 31.4329 16.8197 33.7774 10.0651 29.8188L9.30587 31.1143ZM14.0502 26.3756C13.4228 25.1248 13.3129 24.2188 13.4247 23.5006C13.5388 22.7679 13.8973 22.1312 14.3987 21.4291L13.1766 20.5565C12.6347 21.3155 12.1099 22.1848 11.941 23.2696C11.7699 24.369 11.9774 25.5923 12.708 27.0489L14.0502 26.3756ZM14.0437 27.0616L14.0447 27.0597L12.7135 26.3649L12.7125 26.3668L14.0437 27.0616ZM7.8334 18.9947C7.47788 20.6427 7.59891 22.1564 8.46587 23.5803C9.31098 24.9682 10.8128 26.1823 13.0214 27.3748L13.7348 26.0536C11.6195 24.9114 10.3905 23.8539 9.7484 22.7994C9.12816 21.7807 9.00569 20.6812 9.3012 19.3113L7.8334 18.9947ZM9.07375 15.9683C8.60679 16.8641 8.07526 17.874 7.83341 18.9946L9.30118 19.3114C9.49313 18.422 9.92145 17.5905 10.4053 16.6624L9.07375 15.9683ZM10.2236 12.8372C10.1533 13.8739 9.66672 14.8308 9.07375 15.9683L10.4053 16.6624C10.9694 15.5801 11.6265 14.3431 11.7218 12.9388L10.2236 12.8372ZM12.5493 16.0822C12.4722 14.8294 12.3852 13.8404 11.6238 12.5142L10.3216 13.2618C10.905 14.2779 10.977 14.9794 11.0506 16.1745L12.5493 16.0822ZM14.9327 7.30863C15.1387 8.62962 14.7715 10.0726 14.0456 11.5378C13.3227 12.9969 12.2776 14.4103 11.2285 15.6414L12.3714 16.6153C13.4598 15.3381 14.5914 13.8185 15.3911 12.2044C16.1878 10.5963 16.689 8.82578 16.4163 7.07719L14.9327 7.30863ZM22.0884 14.1664C21.228 11.0402 19.7209 9.12031 18.3952 7.97821C17.7355 7.40991 17.1267 7.03917 16.6751 6.80813C16.4492 6.69259 16.2622 6.61182 16.1274 6.5586C16.0599 6.53198 16.0054 6.51222 15.9655 6.49843C15.9455 6.49153 15.9292 6.48612 15.9167 6.48209C15.9105 6.48008 15.9052 6.4784 15.9009 6.47706C15.8987 6.47639 15.8968 6.4758 15.8952 6.4753C15.8943 6.47504 15.8936 6.47481 15.8929 6.47459C15.8925 6.47449 15.892 6.47434 15.8918 6.47429C15.8914 6.47415 15.8909 6.47401 15.6745 7.19291C15.458 7.91181 15.4576 7.91168 15.4572 7.91156C15.4571 7.91153 15.4567 7.91141 15.4565 7.91134C15.456 7.9112 15.4556 7.91108 15.4553 7.91098C15.4546 7.91077 15.4542 7.91064 15.454 7.91057C15.4536 7.91045 15.4541 7.91062 15.4556 7.91109C15.4585 7.91204 15.4651 7.91421 15.4752 7.9177C15.4955 7.92469 15.5296 7.93696 15.5762 7.95533C15.6693 7.99207 15.8117 8.05312 15.9913 8.14497C16.3505 8.3287 16.857 8.63502 17.4151 9.11582C18.5249 10.0719 19.8627 11.7383 20.6406 14.5649L22.0884 14.1664ZM21.0851 11.1595C21.2693 11.5458 21.3881 12.0955 21.3571 12.6244C21.3259 13.1566 21.1528 13.5599 20.8778 13.794L21.8511 14.9374C22.5451 14.3467 22.8106 13.4875 22.8561 12.7123C22.9017 11.9339 22.7352 11.1313 22.4405 10.5133L21.0851 11.1595ZM20.8237 27.3733C23.6737 25.8286 25.3601 24.0455 26.1942 22.1647C27.0299 20.2802 26.9688 18.3904 26.4982 16.7144C26.0302 15.0474 25.1524 13.5691 24.3125 12.4519C23.4812 11.3462 22.6407 10.5338 22.1928 10.2209L21.3329 11.4518C21.6038 11.6411 22.3345 12.3197 23.1123 13.3542C23.8814 14.3772 24.6505 15.6883 25.0526 17.1203C25.4521 18.5432 25.4841 20.062 24.8216 21.556C24.1574 23.0537 22.7541 24.6191 20.1081 26.0532L20.8237 27.3733ZM16.9939 15.8787C20.2888 18.0844 21.6735 22.8722 19.8042 26.3585L21.1276 27.068C23.3926 22.8437 21.7107 17.2292 17.8292 14.6309L16.9939 15.8787ZM16.3117 21.1912C17.2209 20.2218 17.7396 18.9922 18.0029 17.8938C18.2626 16.8107 18.2977 15.7529 18.1429 15.0852L16.6801 15.4244C16.7648 15.7894 16.7698 16.5968 16.5428 17.5437C16.3194 18.4755 15.8947 19.4409 15.2165 20.1639L16.3117 21.1912ZM15.2252 17.8081C14.6399 18.2783 14.6397 18.278 14.6394 18.2777C14.6394 18.2777 14.6392 18.2774 14.639 18.2772C14.6388 18.2769 14.6385 18.2766 14.6383 18.2763C14.6378 18.2757 14.6374 18.2751 14.637 18.2747C14.6362 18.2737 14.6357 18.273 14.6353 18.2725C14.6346 18.2716 14.6347 18.2717 14.6355 18.2728C14.6371 18.275 14.6417 18.281 14.6486 18.2909C14.6624 18.3106 14.6857 18.3453 14.7147 18.3939C14.7727 18.4915 14.8519 18.6429 14.9232 18.8408C15.0649 19.2337 15.1759 19.8097 15.0287 20.5265L16.4996 20.8286C16.712 19.7945 16.5536 18.9357 16.3358 18.3316C16.2274 18.031 16.1045 17.7933 16.0053 17.6265C15.9556 17.5429 15.9115 17.4765 15.8776 17.4282C15.8606 17.4041 15.8462 17.3844 15.8348 17.3693C15.8292 17.3618 15.8242 17.3554 15.8202 17.3501C15.8181 17.3475 15.8163 17.3452 15.8147 17.3431C15.8139 17.3421 15.8131 17.3411 15.8124 17.3403C15.8121 17.3398 15.8117 17.3394 15.8114 17.339C15.8112 17.3388 15.811 17.3385 15.8109 17.3384C15.8107 17.3381 15.8105 17.3379 15.2252 17.8081ZM14.3986 21.4291C15.0193 20.56 15.4073 19.6991 15.6408 19.0565C15.7578 18.7342 15.837 18.4639 15.8876 18.2709C15.9129 18.1743 15.9311 18.0968 15.9433 18.0416C15.9494 18.0139 15.9541 17.9918 15.9574 17.9757C15.959 17.9676 15.9603 17.961 15.9613 17.9559C15.9618 17.9533 15.9622 17.9512 15.9625 17.9494C15.9627 17.9485 15.9629 17.9477 15.963 17.947C15.963 17.9467 15.9631 17.9464 15.9632 17.9461C15.9632 17.9459 15.9632 17.9457 15.9632 17.9457C15.9633 17.9455 15.9633 17.9453 15.2252 17.8081C14.487 17.6709 14.4871 17.6707 14.4871 17.6705C14.4871 17.6705 14.4871 17.6703 14.4872 17.6702C14.4872 17.67 14.4872 17.6698 14.4873 17.6697C14.4873 17.6694 14.4874 17.6691 14.4874 17.669C14.4874 17.6688 14.4874 17.6689 14.4873 17.6694C14.4871 17.6704 14.4866 17.6729 14.4858 17.6768C14.4842 17.6846 14.4814 17.6981 14.4773 17.7169C14.4689 17.7546 14.4552 17.8134 14.435 17.8903C14.3947 18.0443 14.3288 18.2701 14.2294 18.5439C14.0298 19.0934 13.6991 19.8249 13.1767 20.5565L14.3986 21.4291Z" fill="black" mask="url(#path-1-inside-1_28_535)"/>
</svg>
