<svg width="170" height="35" viewBox="0 0 170 35" fill="none" xmlns="http://www.w3.org/2000/svg">
<path d="M51.0553 21.5493L49.3602 16.7249H41.3282L39.607 21.5493H36.7906L43.6491 3.29471H47.2479L53.976 21.5493H51.0553ZM42.1887 14.3518H48.5257L46.7524 9.37089C46.3351 8.10176 45.8744 6.79785 45.3702 5.45918L45.1095 6.11113L43.9881 9.37089L42.1887 14.3518ZM56.389 21.5493L51.9818 8.61462H54.5636L56.8063 15.7078L57.719 18.6025L57.9276 19.3327L58.1363 18.7068L59.049 15.7078L61.1874 8.61462H63.6909L59.4402 21.5493H56.389ZM64.6042 6.21545V3.29471H67.212V6.21545H64.6042ZM64.7085 21.5493V8.61462H67.1599V21.5493H64.7085ZM72.4494 21.5493L68.0422 8.61462H70.6239L72.8667 15.7078L73.7794 18.6025L73.988 19.3327L74.1966 18.7068L75.1094 15.7078L77.2478 8.61462H79.7513L75.5005 21.5493H72.4494ZM79.5269 18.2113C79.5269 16.5771 80.2745 15.3688 81.7697 14.5865C83.2474 13.7868 85.2119 13.2913 87.6633 13.1V12.7089C87.6633 11.1094 86.7592 10.3097 84.9512 10.3097C83.2474 10.3097 82.1347 11.092 81.6132 12.6567L79.2662 11.8744C79.5269 10.866 80.1528 10.0141 81.1438 9.31873C82.1347 8.60593 83.4039 8.24953 84.9512 8.24953C86.6375 8.24953 87.9154 8.64939 88.7846 9.44912C89.6713 10.2315 90.1146 11.3441 90.1146 12.7871V18.7068C90.1146 19.0024 90.1668 19.2023 90.2711 19.3066C90.3754 19.3935 90.5753 19.437 90.8709 19.437H92.2009V21.5493H90.3232C89.4887 21.5493 88.9063 21.3928 88.576 21.0799C88.2457 20.7496 88.0371 20.2541 87.9501 19.5935C86.8896 21.1408 85.4727 21.9144 83.6994 21.9144C82.4303 21.9144 81.4133 21.5841 80.6483 20.9234C79.9007 20.2454 79.5269 19.3414 79.5269 18.2113ZM87.6633 16.2033V14.8733C83.9254 15.2384 82.0565 16.2816 82.0565 18.0027C82.0565 18.5938 82.2477 19.0632 82.6302 19.4109C83.0301 19.7412 83.6038 19.9064 84.3514 19.9064C85.2728 19.9064 86.0551 19.5848 86.6984 18.9415C87.3417 18.2983 87.6633 17.3855 87.6633 16.2033ZM92.6955 21.5493V8.61462H95.0686V10.5705C95.9379 9.02318 97.2418 8.24953 98.9803 8.24953C99.9017 8.24953 100.71 8.48423 101.406 8.95364C102.118 9.42304 102.649 10.0837 102.996 10.9356C103.848 9.14488 105.291 8.24953 107.325 8.24953C108.768 8.24953 109.872 8.65809 110.637 9.4752C111.402 10.2749 111.785 11.4397 111.785 12.9697V21.5493H109.333V13.6477C109.333 11.4919 108.429 10.414 106.621 10.414C105.682 10.414 104.978 10.6922 104.509 11.2485C104.074 11.7353 103.787 12.309 103.648 12.9697C103.509 13.6129 103.44 14.4387 103.44 15.4471V21.5493H101.04V13.6477C101.04 11.4919 100.128 10.414 98.3023 10.414C97.3809 10.414 96.6855 10.6922 96.2161 11.2485C95.5033 12.0656 95.1469 13.4651 95.1469 15.4471V21.5493H92.6955ZM113.966 6.21545V3.29471H116.574V6.21545H113.966ZM114.07 21.5493V8.61462H116.522V21.5493H114.07ZM117.978 15.1341C117.978 13.0653 118.525 11.405 119.621 10.1532C120.716 8.8841 122.124 8.24953 123.845 8.24953C125.566 8.24953 126.957 8.84932 128.018 10.0489C129.078 11.2485 129.609 12.7784 129.609 14.6386C129.609 14.969 129.582 15.3254 129.53 15.7078H120.429C120.481 17.0987 120.829 18.1418 121.472 18.8372C122.133 19.5152 122.976 19.8542 124.002 19.8542C125.549 19.8542 126.679 19.0284 127.392 17.3768L129.635 18.1853C129.183 19.3848 128.461 20.3063 127.47 20.9495C126.497 21.5928 125.323 21.9144 123.95 21.9144C122.124 21.9144 120.672 21.3233 119.595 20.1411C118.517 18.9415 117.978 17.2725 117.978 15.1341ZM120.481 13.752H127.053C127.036 12.6567 126.723 11.7961 126.114 11.1703C125.506 10.527 124.749 10.2054 123.845 10.2054C122.959 10.2054 122.202 10.527 121.577 11.1703C120.951 11.8135 120.586 12.6741 120.481 13.752ZM131.149 21.5493V8.61462H133.522V10.7791C133.748 10.188 134.227 9.62297 134.957 9.08403C135.704 8.5277 136.634 8.24953 137.747 8.24953C139.242 8.24953 140.364 8.67547 141.111 9.52735C141.859 10.3618 142.233 11.5441 142.233 13.074V21.5493H139.781V13.6477C139.781 11.4745 138.877 10.3879 137.069 10.3879C136.026 10.3879 135.244 10.7009 134.722 11.3267C134.253 11.8831 133.948 12.5176 133.809 13.2304C133.67 13.9432 133.601 14.856 133.601 15.9686V21.5493H131.149ZM145.754 18.3678V10.6487H142.807V8.61462H145.754V4.57253H148.205V8.61462H151.7V10.6487H148.205V18.1592C148.205 19.0111 148.631 19.437 149.483 19.437H152.195V21.5493H148.988C146.832 21.5493 145.754 20.4888 145.754 18.3678ZM153.645 19.9586C152.463 18.6547 151.872 17.0291 151.872 15.082C151.872 13.1348 152.454 11.5093 153.619 10.2054C154.784 8.90148 156.253 8.24953 158.026 8.24953C159.8 8.24953 161.26 8.90148 162.407 10.2054C163.572 11.5093 164.155 13.1348 164.155 15.082C164.155 17.0291 163.572 18.6547 162.407 19.9586C161.243 21.2625 159.782 21.9144 158.026 21.9144C156.288 21.9144 154.827 21.2625 153.645 19.9586ZM161.625 15.1341C161.625 13.5868 161.295 12.4046 160.634 11.5875C159.991 10.7704 159.122 10.3618 158.026 10.3618C156.914 10.3618 156.036 10.7704 155.392 11.5875C154.749 12.4046 154.427 13.5868 154.427 15.1341C154.427 16.6467 154.74 17.8028 155.366 18.6025C156.01 19.4022 156.896 19.8021 158.026 19.8021C159.139 19.8021 160.017 19.4022 160.66 18.6025C161.303 17.7854 161.625 16.6293 161.625 15.1341Z" fill="black"/>
<path d="M38.3907 31.8101V29.6743L36.5136 26.6369H37.6369L38.3686 27.8711L38.4351 27.9745L38.8933 28.7579L39.3958 27.8637L40.0831 26.6369H41.1842L39.3515 29.6669V31.8101H38.3907ZM43.5496 29.7999V26.6369H44.5103V29.6521C44.5103 30.1103 44.6137 30.4626 44.8207 30.7089C45.0276 30.9553 45.3331 31.0784 45.7371 31.0784C46.146 31.0784 46.4539 30.9553 46.6608 30.7089C46.8678 30.4626 46.9712 30.1103 46.9712 29.6521V26.6369H47.9319V29.7999C47.9319 30.465 47.7349 30.9848 47.3407 31.3593C46.9466 31.7337 46.412 31.9209 45.7371 31.9209C45.0621 31.9209 44.5275 31.7362 44.1334 31.3666C43.7442 30.9922 43.5496 30.47 43.5496 29.7999ZM50.4951 29.2013C50.4853 28.4475 50.7292 27.812 51.2268 27.2946C51.7293 26.7724 52.3599 26.5162 53.1187 26.5261C53.7148 26.5261 54.2198 26.6739 54.6336 26.9695C55.0475 27.2651 55.3209 27.6395 55.454 28.0928L54.5597 28.4253C54.3134 27.706 53.8306 27.3464 53.1113 27.3464C52.6186 27.3464 52.2269 27.5114 51.9362 27.8415C51.6505 28.1716 51.5076 28.6224 51.5076 29.1939C51.5076 29.7802 51.6505 30.2433 51.9362 30.5833C52.222 30.9232 52.6137 31.0932 53.1113 31.0932C53.8355 31.0932 54.3282 30.7237 54.5893 29.9847L55.4613 30.332C55.2889 30.8296 55.0032 31.2188 54.6041 31.4997C54.205 31.7805 53.7074 31.9209 53.1113 31.9209C52.3328 31.9308 51.6997 31.677 51.212 31.1597C50.7242 30.6375 50.4853 29.9847 50.4951 29.2013ZM61.4775 31.8101L61.0415 30.5316H58.8614L58.4106 31.8101H57.3759L59.3343 26.6369H60.6128L62.5417 31.8101H61.4775ZM59.157 29.7112H60.7532L60.3246 28.4549L59.9551 27.4129L59.9255 27.509L59.593 28.4623L59.157 29.7112ZM64.9908 31.8101V27.4646H63.195V26.6369H67.7769V27.4646H65.9516V31.8101H64.9908ZM72.4874 31.8101L72.0514 30.5316H69.8713L69.4205 31.8101H68.3859L70.3443 26.6369H71.6228L73.5516 31.8101H72.4874ZM70.1669 29.7112H71.7632L71.3346 28.4549L70.9651 27.4129L70.9355 27.509L70.6029 28.4623L70.1669 29.7112ZM70.6547 26.1344L71.0611 25.0406H72.214L71.3124 26.1344H70.6547ZM75.9294 31.8101V26.6369H77.2523L79.7576 30.1842V28.9279V26.6369H80.7183V31.8101H79.8093L76.8902 27.6789V29.157V31.8101H75.9294Z" fill="black"/>
<mask id="path-3-inside-1_171_1106" fill="white">
<path fill-rule="evenodd" clip-rule="evenodd" d="M2.29326 8.68522C-2.42478 16.9803 0.36472 27.6145 8.57192 32.4244C16.7791 37.2343 27.2466 34.3694 31.9646 26.0743C36.6827 17.7792 33.8932 7.14497 25.686 2.3351C17.4788 -2.47477 7.0113 0.390131 2.29326 8.68522ZM9.68548 30.4666C2.56517 26.2937 0.125572 17.0517 4.23648 9.82406C8.34739 2.5964 17.4521 0.120026 24.5724 4.29292C31.6927 8.46581 34.1323 17.7078 30.0214 24.9354C25.9105 32.1631 16.8058 34.6395 9.68548 30.4666ZM13.7876 20.9928C12.7444 22.4539 12.021 24.0048 13.3791 26.7123L13.3781 26.7142C9.05428 24.3796 7.91628 22.1709 8.5673 19.153C8.78419 18.148 9.26412 17.2273 9.73951 16.3154C10.3181 15.2055 10.8899 14.1085 10.9727 12.888C11.6451 14.0592 11.7246 14.9044 11.8 16.1283C13.9374 13.62 16.1533 10.2625 15.6745 7.19291C15.6745 7.19291 19.7262 8.41293 21.3645 14.3657C22.3334 13.5409 22.2417 11.8407 21.7628 10.8364C23.2004 11.8407 31.4578 20.7556 20.4659 26.7132C22.5331 22.858 20.9998 17.6568 17.4115 15.2548C17.6509 16.2874 17.3514 18.9851 15.7641 20.6776C16.1238 18.9266 15.2252 17.8081 15.2252 17.8081C15.2252 17.8081 14.9307 19.3921 13.7876 20.9928Z"/>
</mask>
<path fill-rule="evenodd" clip-rule="evenodd" d="M2.29326 8.68522C-2.42478 16.9803 0.36472 27.6145 8.57192 32.4244C16.7791 37.2343 27.2466 34.3694 31.9646 26.0743C36.6827 17.7792 33.8932 7.14497 25.686 2.3351C17.4788 -2.47477 7.0113 0.390131 2.29326 8.68522ZM9.68548 30.4666C2.56517 26.2937 0.125572 17.0517 4.23648 9.82406C8.34739 2.5964 17.4521 0.120026 24.5724 4.29292C31.6927 8.46581 34.1323 17.7078 30.0214 24.9354C25.9105 32.1631 16.8058 34.6395 9.68548 30.4666ZM13.7876 20.9928C12.7444 22.4539 12.021 24.0048 13.3791 26.7123L13.3781 26.7142C9.05428 24.3796 7.91628 22.1709 8.5673 19.153C8.78419 18.148 9.26412 17.2273 9.73951 16.3154C10.3181 15.2055 10.8899 14.1085 10.9727 12.888C11.6451 14.0592 11.7246 14.9044 11.8 16.1283C13.9374 13.62 16.1533 10.2625 15.6745 7.19291C15.6745 7.19291 19.7262 8.41293 21.3645 14.3657C22.3334 13.5409 22.2417 11.8407 21.7628 10.8364C23.2004 11.8407 31.4578 20.7556 20.4659 26.7132C22.5331 22.858 20.9998 17.6568 17.4115 15.2548C17.6509 16.2874 17.3514 18.9851 15.7641 20.6776C16.1238 18.9266 15.2252 17.8081 15.2252 17.8081C15.2252 17.8081 14.9307 19.3921 13.7876 20.9928Z" fill="black"/>
<path d="M8.57192 32.4244L8.19231 33.0721V33.0721L8.57192 32.4244ZM2.29326 8.68522L1.64065 8.31404L2.29326 8.68522ZM31.9646 26.0743L31.312 25.7031L31.9646 26.0743ZM4.23648 9.82406L4.88909 10.1952L4.23648 9.82406ZM9.68548 30.4666L9.30587 31.1143L9.68548 30.4666ZM24.5724 4.29292L24.952 3.64518L24.5724 4.29292ZM30.0214 24.9354L30.674 25.3066V25.3066L30.0214 24.9354ZM13.3791 26.7123L14.0447 27.0597L14.2225 26.7191L14.0502 26.3756L13.3791 26.7123ZM13.7876 20.9928L13.1767 20.5565L13.1766 20.5565L13.7876 20.9928ZM13.3781 26.7142L13.0214 27.3748L13.6913 27.7366L14.0437 27.0616L13.3781 26.7142ZM8.5673 19.153L7.83341 18.9946L7.8334 18.9947L8.5673 19.153ZM9.73951 16.3154L9.07375 15.9683V15.9683L9.73951 16.3154ZM10.9727 12.888L11.6238 12.5142L10.3911 10.3671L10.2236 12.8372L10.9727 12.888ZM11.8 16.1283L11.0506 16.1745L11.165 18.0311L12.3714 16.6153L11.8 16.1283ZM15.6745 7.19291L15.8909 6.47401L14.7488 6.13011L14.9327 7.30863L15.6745 7.19291ZM21.3645 14.3657L20.6406 14.5649L20.9534 15.7015L21.8511 14.9374L21.3645 14.3657ZM21.7628 10.8364L22.1928 10.2209L19.8609 8.59174L21.0851 11.1595L21.7628 10.8364ZM20.4659 26.7132L19.8042 26.3585L18.6195 28.5679L20.8237 27.3733L20.4659 26.7132ZM17.4115 15.2548L17.8292 14.6309L16.2513 13.5747L16.6801 15.4244L17.4115 15.2548ZM15.7641 20.6776L15.0287 20.5265L14.4941 23.1291L16.3117 21.1912L15.7641 20.6776ZM15.2252 17.8081L15.8105 17.3379L14.786 16.0626L14.487 17.6709L15.2252 17.8081ZM8.95153 31.7767C1.10344 27.1772 -1.57173 16.9991 2.94587 9.05641L1.64065 8.31404C-3.27784 16.9616 -0.374004 28.0518 8.19231 33.0721L8.95153 31.7767ZM31.312 25.7031C26.7981 33.6393 16.7929 36.3721 8.95153 31.7767L8.19231 33.0721C16.7654 38.0964 27.6951 35.0994 32.6172 26.4455L31.312 25.7031ZM25.3064 2.98284C33.1544 7.58225 35.8296 17.7604 31.312 25.7031L32.6172 26.4455C37.5357 17.7979 34.6319 6.70769 26.0656 1.68736L25.3064 2.98284ZM2.94587 9.05641C7.45981 1.12016 17.465 -1.61262 25.3064 2.98284L26.0656 1.68736C17.4925 -3.33692 6.5628 -0.339898 1.64065 8.31404L2.94587 9.05641ZM3.58388 9.45288C-0.727586 17.0331 1.82662 26.7311 9.30587 31.1143L10.0651 29.8188C3.30372 25.8563 0.978729 17.0703 4.88909 10.1952L3.58388 9.45288ZM24.952 3.64518C17.466 -0.742017 7.899 1.86619 3.58388 9.45288L4.88909 10.1952C8.79579 3.32662 17.4382 0.982069 24.1928 4.94066L24.952 3.64518ZM30.674 25.3066C34.9855 17.7264 32.4313 8.02842 24.952 3.64518L24.1928 4.94066C30.9542 8.90319 33.2792 17.6892 29.3688 24.5643L30.674 25.3066ZM9.30587 31.1143C16.7918 35.5015 26.3589 32.8933 30.674 25.3066L29.3688 24.5643C25.4621 31.4329 16.8197 33.7774 10.0651 29.8188L9.30587 31.1143ZM14.0502 26.3756C13.4228 25.1248 13.3129 24.2188 13.4247 23.5006C13.5388 22.7679 13.8973 22.1312 14.3987 21.4291L13.1766 20.5565C12.6347 21.3155 12.1099 22.1848 11.941 23.2696C11.7699 24.369 11.9774 25.5923 12.708 27.0489L14.0502 26.3756ZM14.0437 27.0616L14.0447 27.0597L12.7135 26.3649L12.7125 26.3668L14.0437 27.0616ZM7.8334 18.9947C7.47788 20.6427 7.59891 22.1564 8.46587 23.5803C9.31098 24.9682 10.8128 26.1823 13.0214 27.3748L13.7348 26.0536C11.6195 24.9114 10.3905 23.8539 9.7484 22.7994C9.12816 21.7807 9.00569 20.6812 9.3012 19.3113L7.8334 18.9947ZM9.07375 15.9683C8.60679 16.8641 8.07526 17.874 7.83341 18.9946L9.30118 19.3114C9.49313 18.422 9.92145 17.5905 10.4053 16.6624L9.07375 15.9683ZM10.2236 12.8372C10.1533 13.8739 9.66672 14.8308 9.07375 15.9683L10.4053 16.6624C10.9694 15.5801 11.6265 14.3431 11.7218 12.9388L10.2236 12.8372ZM12.5493 16.0822C12.4722 14.8294 12.3852 13.8404 11.6238 12.5142L10.3216 13.2618C10.905 14.2779 10.977 14.9794 11.0506 16.1745L12.5493 16.0822ZM14.9327 7.30863C15.1387 8.62962 14.7715 10.0726 14.0456 11.5378C13.3227 12.9969 12.2776 14.4103 11.2285 15.6414L12.3714 16.6153C13.4598 15.3381 14.5914 13.8185 15.3911 12.2044C16.1878 10.5963 16.689 8.82578 16.4163 7.07719L14.9327 7.30863ZM22.0884 14.1664C21.228 11.0402 19.7209 9.12031 18.3952 7.97821C17.7355 7.40991 17.1267 7.03917 16.6751 6.80813C16.4492 6.69259 16.2622 6.61182 16.1274 6.5586C16.0599 6.53198 16.0054 6.51222 15.9655 6.49843C15.9455 6.49153 15.9292 6.48612 15.9167 6.48209C15.9105 6.48008 15.9052 6.4784 15.9009 6.47706C15.8987 6.47639 15.8968 6.4758 15.8952 6.4753C15.8943 6.47504 15.8936 6.47481 15.8929 6.47459C15.8925 6.47449 15.892 6.47434 15.8918 6.47429C15.8914 6.47415 15.8909 6.47401 15.6745 7.19291C15.458 7.91181 15.4576 7.91168 15.4572 7.91156C15.4571 7.91153 15.4567 7.91141 15.4565 7.91134C15.456 7.9112 15.4556 7.91108 15.4553 7.91098C15.4546 7.91077 15.4542 7.91064 15.454 7.91057C15.4536 7.91045 15.4541 7.91062 15.4556 7.91109C15.4585 7.91204 15.4651 7.91421 15.4752 7.9177C15.4955 7.92469 15.5296 7.93696 15.5762 7.95533C15.6693 7.99207 15.8117 8.05312 15.9913 8.14497C16.3505 8.3287 16.857 8.63502 17.4151 9.11582C18.5249 10.0719 19.8627 11.7383 20.6406 14.5649L22.0884 14.1664ZM21.0851 11.1595C21.2693 11.5458 21.3881 12.0955 21.3571 12.6244C21.3259 13.1566 21.1528 13.5599 20.8778 13.794L21.8511 14.9374C22.5451 14.3467 22.8106 13.4875 22.8561 12.7123C22.9017 11.9339 22.7352 11.1313 22.4405 10.5133L21.0851 11.1595ZM20.8237 27.3733C23.6737 25.8286 25.3601 24.0455 26.1942 22.1647C27.0299 20.2802 26.9688 18.3904 26.4982 16.7144C26.0302 15.0474 25.1524 13.5691 24.3125 12.4519C23.4812 11.3462 22.6407 10.5338 22.1928 10.2209L21.3329 11.4518C21.6038 11.6411 22.3345 12.3197 23.1123 13.3542C23.8814 14.3772 24.6505 15.6883 25.0526 17.1203C25.4521 18.5432 25.4841 20.062 24.8216 21.556C24.1574 23.0537 22.7541 24.6191 20.1081 26.0532L20.8237 27.3733ZM16.9939 15.8787C20.2888 18.0844 21.6735 22.8722 19.8042 26.3585L21.1276 27.068C23.3926 22.8437 21.7107 17.2292 17.8292 14.6309L16.9939 15.8787ZM16.3117 21.1912C17.2209 20.2218 17.7396 18.9922 18.0029 17.8938C18.2626 16.8107 18.2977 15.7529 18.1429 15.0852L16.6801 15.4244C16.7648 15.7894 16.7698 16.5968 16.5428 17.5437C16.3194 18.4755 15.8947 19.4409 15.2165 20.1639L16.3117 21.1912ZM15.2252 17.8081C14.6399 18.2783 14.6397 18.278 14.6394 18.2777C14.6394 18.2777 14.6392 18.2774 14.639 18.2772C14.6388 18.2769 14.6385 18.2766 14.6383 18.2763C14.6378 18.2757 14.6374 18.2751 14.637 18.2747C14.6362 18.2737 14.6357 18.273 14.6353 18.2725C14.6346 18.2716 14.6347 18.2717 14.6355 18.2728C14.6371 18.275 14.6417 18.281 14.6486 18.2909C14.6624 18.3106 14.6857 18.3453 14.7147 18.3939C14.7727 18.4915 14.8519 18.6429 14.9232 18.8408C15.0649 19.2337 15.1759 19.8097 15.0287 20.5265L16.4996 20.8286C16.712 19.7945 16.5536 18.9357 16.3358 18.3316C16.2274 18.031 16.1045 17.7933 16.0053 17.6265C15.9556 17.5429 15.9115 17.4765 15.8776 17.4282C15.8606 17.4041 15.8462 17.3844 15.8348 17.3693C15.8292 17.3618 15.8242 17.3554 15.8202 17.3501C15.8181 17.3475 15.8163 17.3452 15.8147 17.3431C15.8139 17.3421 15.8131 17.3411 15.8124 17.3403C15.8121 17.3398 15.8117 17.3394 15.8114 17.339C15.8112 17.3388 15.811 17.3385 15.8109 17.3384C15.8107 17.3381 15.8105 17.3379 15.2252 17.8081ZM14.3986 21.4291C15.0193 20.56 15.4073 19.6991 15.6408 19.0565C15.7578 18.7342 15.837 18.4639 15.8876 18.2709C15.9129 18.1743 15.9311 18.0968 15.9433 18.0416C15.9494 18.0139 15.9541 17.9918 15.9574 17.9757C15.959 17.9676 15.9603 17.961 15.9613 17.9559C15.9618 17.9533 15.9622 17.9512 15.9625 17.9494C15.9627 17.9485 15.9629 17.9477 15.963 17.947C15.963 17.9467 15.9631 17.9464 15.9632 17.9461C15.9632 17.9459 15.9632 17.9457 15.9632 17.9457C15.9633 17.9455 15.9633 17.9453 15.2252 17.8081C14.487 17.6709 14.4871 17.6707 14.4871 17.6705C14.4871 17.6705 14.4871 17.6703 14.4872 17.6702C14.4872 17.67 14.4872 17.6698 14.4873 17.6697C14.4873 17.6694 14.4874 17.6691 14.4874 17.669C14.4874 17.6688 14.4874 17.6689 14.4873 17.6694C14.4871 17.6704 14.4866 17.6729 14.4858 17.6768C14.4842 17.6846 14.4814 17.6981 14.4773 17.7169C14.4689 17.7546 14.4552 17.8134 14.435 17.8903C14.3947 18.0443 14.3288 18.2701 14.2294 18.5439C14.0298 19.0934 13.6991 19.8249 13.1767 20.5565L14.3986 21.4291Z" fill="black" mask="url(#path-3-inside-1_171_1106)"/>
</svg>
